<svg width="24" height="24" viewBox="0 0 30 30" fill="none" xmlns="http://www.w3.org/2000/svg">
<circle cx="15" cy="15" r="15" fill="white"/>
<path d="M12.9109 24V10.9091H17.0785V24H12.9109ZM14.9989 9.38352C14.4137 9.38352 13.9109 9.19034 13.4904 8.80398C13.07 8.41193 12.8597 7.94034 12.8597 7.3892C12.8597 6.84375 13.07 6.37784 13.4904 5.99148C13.9109 5.59943 14.4137 5.40341 14.9989 5.40341C15.5898 5.40341 16.0927 5.59943 16.5075 5.99148C16.9279 6.37784 17.1381 6.84375 17.1381 7.3892C17.1381 7.94034 16.9279 8.41193 16.5075 8.80398C16.0927 9.19034 15.5898 9.38352 14.9989 9.38352Z" fill="#0C41FF"/>
</svg>
