<svg width="114" height="106" viewBox="0 0 114 106" fill="none" xmlns="http://www.w3.org/2000/svg">
<path d="M72 32.5C72 49.897 57.4493 64 39.5 64C21.5507 64 7 49.897 7 32.5C7 15.103 21.5507 1 39.5 1C57.4493 1 72 15.103 72 32.5Z" fill="#0C41FF"/>
<path d="M26.4545 38V20.5455H29.0455V23.2727H29.2727C29.6364 22.3409 30.2235 21.6174 31.0341 21.1023C31.8447 20.5795 32.8182 20.3182 33.9545 20.3182C35.1061 20.3182 36.0644 20.5795 36.8295 21.1023C37.6023 21.6174 38.2045 22.3409 38.6364 23.2727H38.8182C39.2652 22.3712 39.9356 21.6553 40.8295 21.125C41.7235 20.5871 42.7955 20.3182 44.0455 20.3182C45.6061 20.3182 46.8826 20.8068 47.875 21.7841C48.8674 22.7538 49.3636 24.2652 49.3636 26.3182V38H46.6818V26.3182C46.6818 25.0303 46.3295 24.1098 45.625 23.5568C44.9205 23.0038 44.0909 22.7273 43.1364 22.7273C41.9091 22.7273 40.9583 23.0985 40.2841 23.8409C39.6098 24.5758 39.2727 25.5076 39.2727 26.6364V38H36.5455V26.0455C36.5455 25.053 36.2235 24.2538 35.5795 23.6477C34.9356 23.0341 34.1061 22.7273 33.0909 22.7273C32.3939 22.7273 31.7424 22.9129 31.1364 23.2841C30.5379 23.6553 30.053 24.1705 29.6818 24.8295C29.3182 25.4811 29.1364 26.2348 29.1364 27.0909V38H26.4545Z" fill="white"/>
<ellipse cx="72" cy="71.5" rx="35" ry="34.5" fill="#0C41FF"/>
<path d="M105.5 71.5C105.5 89.7051 90.522 104.5 72 104.5C53.478 104.5 38.5 89.7051 38.5 71.5C38.5 53.2949 53.478 38.5 72 38.5C90.522 38.5 105.5 53.2949 105.5 71.5Z" stroke="#050505" stroke-opacity="0.79" stroke-width="3"/>
<path d="M71.2273 65.5455V67.8182H61.8182V65.5455H71.2273ZM64.6364 83V63.1364C64.6364 62.1364 64.8712 61.303 65.3409 60.6364C65.8106 59.9697 66.4205 59.4697 67.1705 59.1364C67.9205 58.803 68.7121 58.6364 69.5455 58.6364C70.2045 58.6364 70.7424 58.6894 71.1591 58.7955C71.5758 58.9015 71.8864 59 72.0909 59.0909L71.3182 61.4091C71.1818 61.3636 70.9924 61.3068 70.75 61.2386C70.5152 61.1705 70.2045 61.1364 69.8182 61.1364C68.9318 61.1364 68.2917 61.3598 67.8977 61.8068C67.5114 62.2538 67.3182 62.9091 67.3182 63.7727V83H64.6364ZM82.5767 65.5455V67.8182H73.5312V65.5455H82.5767ZM76.1676 61.3636H78.8494V78C78.8494 78.7576 78.9593 79.3258 79.179 79.7045C79.4063 80.0758 79.6941 80.3258 80.0426 80.4545C80.3987 80.5758 80.7737 80.6364 81.1676 80.6364C81.4631 80.6364 81.7055 80.6212 81.8949 80.5909C82.0843 80.553 82.2358 80.5227 82.3494 80.5L82.8949 82.9091C82.7131 82.9773 82.4593 83.0455 82.1335 83.1136C81.8078 83.1894 81.3949 83.2273 80.8949 83.2273C80.1373 83.2273 79.3949 83.0644 78.6676 82.7386C77.9479 82.4129 77.3494 81.9167 76.8722 81.25C76.4025 80.5833 76.1676 79.7424 76.1676 78.7273V61.3636Z" fill="white"/>
<path d="M2.30928 59.7571L2.30928 76.3477C2.30928 84.632 9.02501 91.3477 17.3093 91.3477L33.0022 91.3477" stroke="#0C41FF" stroke-width="4"/>
<path d="M111.375 43.9377L111.124 27.349C110.999 19.0656 104.183 12.4522 95.8994 12.5774L80.2083 12.8146" stroke="#0C41FF" stroke-width="4"/>
<path d="M34.5273 93.0152L25.2192 81.2687" stroke="#0C41FF" stroke-width="4"/>
<path d="M78.6581 11.1703L88.1428 22.7747" stroke="#0C41FF" stroke-width="4"/>
<path d="M34.5273 90.5946L25.22 102.342" stroke="#0C41FF" stroke-width="4"/>
<path d="M78.6947 13.5906L87.8234 1.70419" stroke="#0C41FF" stroke-width="4"/>
</svg>
