<svg width="323" height="74" viewBox="0 0 323 74" fill="none" xmlns="http://www.w3.org/2000/svg">
<path d="M105.2 5.72727H110.814V20.7386C110.814 22.4735 110.401 23.9848 109.575 25.2727C108.75 26.553 107.598 27.5455 106.121 28.25C104.643 28.947 102.928 29.2955 100.973 29.2955C98.9957 29.2955 97.2685 28.947 95.7912 28.25C94.3139 27.5455 93.1662 26.553 92.348 25.2727C91.5298 23.9848 91.1207 22.4735 91.1207 20.7386V5.72727H96.7457V20.25C96.7457 21.053 96.92 21.7689 97.2685 22.3977C97.6245 23.0265 98.1207 23.5189 98.7571 23.875C99.3935 24.2311 100.132 24.4091 100.973 24.4091C101.814 24.4091 102.549 24.2311 103.178 23.875C103.814 23.5189 104.31 23.0265 104.666 22.3977C105.022 21.7689 105.2 21.053 105.2 20.25V5.72727ZM119.896 19.0455V29H114.339V11.5455H119.624V14.75H119.817C120.203 13.6818 120.862 12.8447 121.794 12.2386C122.726 11.625 123.836 11.3182 125.124 11.3182C126.351 11.3182 127.415 11.5947 128.317 12.1477C129.226 12.6932 129.93 13.4583 130.43 14.4432C130.938 15.4205 131.188 16.5644 131.18 17.875V29H125.624V18.9659C125.631 17.9962 125.385 17.2386 124.885 16.6932C124.393 16.1477 123.707 15.875 122.828 15.875C122.245 15.875 121.73 16.0038 121.283 16.2614C120.843 16.5114 120.502 16.8712 120.26 17.3409C120.025 17.8106 119.904 18.3788 119.896 19.0455ZM134.621 29V11.5455H140.178V29H134.621ZM137.405 9.51136C136.625 9.51136 135.954 9.25379 135.393 8.73864C134.833 8.21591 134.553 7.58712 134.553 6.85227C134.553 6.125 134.833 5.50379 135.393 4.98864C135.954 4.46591 136.625 4.20454 137.405 4.20454C138.193 4.20454 138.863 4.46591 139.416 4.98864C139.977 5.50379 140.257 6.125 140.257 6.85227C140.257 7.58712 139.977 8.21591 139.416 8.73864C138.863 9.25379 138.193 9.51136 137.405 9.51136ZM153.567 11.5455V15.6364H142.555V11.5455H153.567ZM144.862 7.36364H150.419V23.5114C150.419 23.8523 150.472 24.1288 150.578 24.3409C150.692 24.5455 150.855 24.6932 151.067 24.7841C151.279 24.8674 151.533 24.9091 151.828 24.9091C152.04 24.9091 152.264 24.8902 152.499 24.8523C152.741 24.8068 152.923 24.7689 153.044 24.7386L153.885 28.75C153.62 28.8258 153.245 28.9205 152.76 29.0341C152.283 29.1477 151.711 29.2197 151.044 29.25C149.741 29.3106 148.624 29.1591 147.692 28.7955C146.768 28.4242 146.059 27.8485 145.567 27.0682C145.082 26.2879 144.847 25.3068 144.862 24.125V7.36364ZM184.402 14.1591H178.72C178.644 13.5758 178.489 13.0492 178.254 12.5795C178.019 12.1098 177.709 11.7083 177.322 11.375C176.936 11.0417 176.478 10.7879 175.947 10.6136C175.425 10.4318 174.845 10.3409 174.209 10.3409C173.08 10.3409 172.107 10.6174 171.288 11.1705C170.478 11.7235 169.853 12.5227 169.413 13.5682C168.982 14.6136 168.766 15.8788 168.766 17.3636C168.766 18.9091 168.985 20.2045 169.425 21.25C169.872 22.2879 170.497 23.072 171.3 23.6023C172.11 24.125 173.069 24.3864 174.175 24.3864C174.796 24.3864 175.36 24.3068 175.868 24.1477C176.383 23.9886 176.834 23.7576 177.22 23.4545C177.614 23.1439 177.936 22.7689 178.186 22.3295C178.444 21.8826 178.622 21.3788 178.72 20.8182L184.402 20.8523C184.304 21.8826 184.004 22.8977 183.504 23.8977C183.012 24.8977 182.334 25.8106 181.47 26.6364C180.607 27.4545 179.554 28.1061 178.311 28.5909C177.076 29.0758 175.66 29.3182 174.061 29.3182C171.955 29.3182 170.069 28.8561 168.402 27.9318C166.743 27 165.432 25.6439 164.47 23.8636C163.508 22.0833 163.027 19.9167 163.027 17.3636C163.027 14.803 163.516 12.6326 164.493 10.8523C165.47 9.07197 166.792 7.7197 168.459 6.79545C170.125 5.87121 171.993 5.40909 174.061 5.40909C175.47 5.40909 176.773 5.60606 177.97 6C179.167 6.38636 180.22 6.95454 181.129 7.70454C182.038 8.44697 182.777 9.35985 183.345 10.4432C183.913 11.5265 184.266 12.7652 184.402 14.1591ZM195.768 29.3295C193.935 29.3295 192.359 28.9545 191.041 28.2045C189.731 27.447 188.719 26.3939 188.007 25.0455C187.303 23.6894 186.95 22.1174 186.95 20.3295C186.95 18.5341 187.303 16.9621 188.007 15.6136C188.719 14.2576 189.731 13.2045 191.041 12.4545C192.359 11.697 193.935 11.3182 195.768 11.3182C197.602 11.3182 199.174 11.697 200.484 12.4545C201.803 13.2045 202.814 14.2576 203.518 15.6136C204.231 16.9621 204.587 18.5341 204.587 20.3295C204.587 22.1174 204.231 23.6894 203.518 25.0455C202.814 26.3939 201.803 27.447 200.484 28.2045C199.174 28.9545 197.602 29.3295 195.768 29.3295ZM195.803 25.1364C196.469 25.1364 197.034 24.9318 197.496 24.5227C197.958 24.1136 198.31 23.5455 198.553 22.8182C198.803 22.0909 198.928 21.25 198.928 20.2955C198.928 19.3258 198.803 18.4773 198.553 17.75C198.31 17.0227 197.958 16.4545 197.496 16.0455C197.034 15.6364 196.469 15.4318 195.803 15.4318C195.113 15.4318 194.53 15.6364 194.053 16.0455C193.583 16.4545 193.223 17.0227 192.973 17.75C192.731 18.4773 192.609 19.3258 192.609 20.2955C192.609 21.25 192.731 22.0909 192.973 22.8182C193.223 23.5455 193.583 24.1136 194.053 24.5227C194.53 24.9318 195.113 25.1364 195.803 25.1364ZM212.99 19.0455V29H207.433V11.5455H212.717V14.75H212.911C213.297 13.6818 213.956 12.8447 214.888 12.2386C215.82 11.625 216.929 11.3182 218.217 11.3182C219.445 11.3182 220.509 11.5947 221.411 12.1477C222.32 12.6932 223.024 13.4583 223.524 14.4432C224.032 15.4205 224.282 16.5644 224.274 17.875V29H218.717V18.9659C218.725 17.9962 218.479 17.2386 217.979 16.6932C217.486 16.1477 216.801 15.875 215.922 15.875C215.339 15.875 214.823 16.0038 214.376 16.2614C213.937 16.5114 213.596 16.8712 213.354 17.3409C213.119 17.8106 212.998 18.3788 212.99 19.0455ZM244.021 11.5455L238.033 29H231.669L225.692 11.5455H231.544L234.76 23.5682H234.942L238.169 11.5455H244.021ZM253.749 29.3295C251.923 29.3295 250.347 28.9697 249.021 28.25C247.703 27.5227 246.688 26.4886 245.976 25.1477C245.271 23.7992 244.919 22.197 244.919 20.3409C244.919 18.5379 245.275 16.9621 245.987 15.6136C246.699 14.2576 247.703 13.2045 248.999 12.4545C250.294 11.697 251.821 11.3182 253.578 11.3182C254.821 11.3182 255.957 11.5114 256.987 11.8977C258.018 12.2841 258.908 12.8561 259.658 13.6136C260.408 14.3712 260.991 15.3068 261.408 16.4205C261.824 17.5265 262.033 18.7955 262.033 20.2273V21.6136H246.862V18.3864H256.862C256.855 17.7955 256.714 17.2689 256.442 16.8068C256.169 16.3447 255.794 15.9848 255.317 15.7273C254.847 15.4621 254.305 15.3295 253.692 15.3295C253.071 15.3295 252.514 15.4697 252.021 15.75C251.529 16.0227 251.139 16.3977 250.851 16.875C250.563 17.3447 250.411 17.8788 250.396 18.4773V21.7614C250.396 22.4735 250.536 23.0985 250.817 23.6364C251.097 24.1667 251.495 24.5795 252.01 24.875C252.525 25.1705 253.139 25.3182 253.851 25.3182C254.343 25.3182 254.79 25.25 255.192 25.1136C255.593 24.9773 255.938 24.7765 256.226 24.5114C256.514 24.2462 256.73 23.9205 256.874 23.5341L261.976 23.6818C261.764 24.8258 261.298 25.822 260.578 26.6705C259.866 27.5114 258.93 28.1667 257.771 28.6364C256.612 29.0985 255.271 29.3295 253.749 29.3295ZM264.871 29V11.5455H270.268V14.7273H270.45C270.768 13.5758 271.287 12.7197 272.007 12.1591C272.727 11.5909 273.564 11.3068 274.518 11.3068C274.776 11.3068 275.041 11.3258 275.314 11.3636C275.587 11.3939 275.84 11.4432 276.075 11.5114V16.3409C275.81 16.25 275.462 16.178 275.03 16.125C274.606 16.072 274.227 16.0455 273.893 16.0455C273.234 16.0455 272.64 16.1932 272.109 16.4886C271.587 16.7765 271.174 17.1818 270.871 17.7045C270.575 18.2197 270.428 18.8258 270.428 19.5227V29H264.871ZM289.004 11.5455V15.6364H277.993V11.5455H289.004ZM280.3 7.36364H285.857V23.5114C285.857 23.8523 285.91 24.1288 286.016 24.3409C286.129 24.5455 286.292 24.6932 286.504 24.7841C286.716 24.8674 286.97 24.9091 287.266 24.9091C287.478 24.9091 287.701 24.8902 287.936 24.8523C288.179 24.8068 288.36 24.7689 288.482 24.7386L289.322 28.75C289.057 28.8258 288.682 28.9205 288.197 29.0341C287.72 29.1477 287.148 29.2197 286.482 29.25C285.179 29.3106 284.061 29.1591 283.129 28.7955C282.205 28.4242 281.497 27.8485 281.004 27.0682C280.519 26.2879 280.285 25.3068 280.3 24.125V7.36364ZM299.811 29.3295C297.985 29.3295 296.41 28.9697 295.084 28.25C293.766 27.5227 292.75 26.4886 292.038 25.1477C291.334 23.7992 290.982 22.197 290.982 20.3409C290.982 18.5379 291.338 16.9621 292.05 15.6136C292.762 14.2576 293.766 13.2045 295.061 12.4545C296.357 11.697 297.883 11.3182 299.641 11.3182C300.883 11.3182 302.019 11.5114 303.05 11.8977C304.08 12.2841 304.97 12.8561 305.72 13.6136C306.47 14.3712 307.054 15.3068 307.47 16.4205C307.887 17.5265 308.095 18.7955 308.095 20.2273V21.6136H292.925V18.3864H302.925C302.917 17.7955 302.777 17.2689 302.504 16.8068C302.232 16.3447 301.857 15.9848 301.379 15.7273C300.91 15.4621 300.368 15.3295 299.754 15.3295C299.133 15.3295 298.576 15.4697 298.084 15.75C297.591 16.0227 297.201 16.3977 296.913 16.875C296.625 17.3447 296.474 17.8788 296.459 18.4773V21.7614C296.459 22.4735 296.599 23.0985 296.879 23.6364C297.16 24.1667 297.557 24.5795 298.072 24.875C298.588 25.1705 299.201 25.3182 299.913 25.3182C300.406 25.3182 300.853 25.25 301.254 25.1136C301.656 24.9773 302 24.7765 302.288 24.5114C302.576 24.2462 302.792 23.9205 302.936 23.5341L308.038 23.6818C307.826 24.8258 307.36 25.822 306.641 26.6705C305.929 27.5114 304.993 28.1667 303.834 28.6364C302.675 29.0985 301.334 29.3295 299.811 29.3295ZM310.933 29V11.5455H316.331V14.7273H316.513C316.831 13.5758 317.35 12.7197 318.07 12.1591C318.789 11.5909 319.626 11.3068 320.581 11.3068C320.839 11.3068 321.104 11.3258 321.376 11.3636C321.649 11.3939 321.903 11.4432 322.138 11.5114V16.3409C321.873 16.25 321.524 16.178 321.092 16.125C320.668 16.072 320.289 16.0455 319.956 16.0455C319.297 16.0455 318.702 16.1932 318.172 16.4886C317.649 16.7765 317.236 17.1818 316.933 17.7045C316.638 18.2197 316.49 18.8258 316.49 19.5227V29H310.933ZM95.3113 41.5455H97.834L103.766 56.0341H103.97L109.902 41.5455H112.425V59H110.448V45.7386H110.277L104.823 59H102.914L97.459 45.7386H97.2886V59H95.3113V41.5455ZM127.76 53.6477V45.9091H129.771V59H127.76V56.7841H127.624C127.317 57.4489 126.84 58.0142 126.192 58.4801C125.544 58.9403 124.726 59.1705 123.737 59.1705C122.919 59.1705 122.192 58.9915 121.556 58.6335C120.919 58.2699 120.419 57.7244 120.056 56.9972C119.692 56.2642 119.51 55.3409 119.51 54.2273V45.9091H121.521V54.0909C121.521 55.0455 121.789 55.8068 122.323 56.375C122.862 56.9432 123.55 57.2273 124.385 57.2273C124.885 57.2273 125.394 57.0994 125.911 56.8438C126.433 56.5881 126.871 56.196 127.223 55.6676C127.581 55.1392 127.76 54.4659 127.76 53.6477ZM138.587 41.5455V59H136.575V41.5455H138.587ZM151.084 45.9091V47.6136H144.3V45.9091H151.084ZM146.277 42.7727H148.288V55.25C148.288 55.8182 148.371 56.2443 148.536 56.5284C148.706 56.8068 148.922 56.9943 149.183 57.0909C149.45 57.1818 149.732 57.2273 150.027 57.2273C150.249 57.2273 150.431 57.2159 150.573 57.1932C150.715 57.1648 150.828 57.142 150.913 57.125L151.323 58.9318C151.186 58.983 150.996 59.0341 150.752 59.0852C150.507 59.142 150.198 59.1705 149.823 59.1705C149.254 59.1705 148.698 59.0483 148.152 58.804C147.612 58.5597 147.163 58.1875 146.806 57.6875C146.453 57.1875 146.277 56.5568 146.277 55.7955V42.7727ZM157.23 59V45.9091H159.241V59H157.23ZM158.252 43.7273C157.86 43.7273 157.522 43.5938 157.238 43.3267C156.96 43.0597 156.82 42.7386 156.82 42.3636C156.82 41.9886 156.96 41.6676 157.238 41.4006C157.522 41.1335 157.86 41 158.252 41C158.644 41 158.98 41.1335 159.258 41.4006C159.542 41.6676 159.684 41.9886 159.684 42.3636C159.684 42.7386 159.542 43.0597 159.258 43.3267C158.98 43.5938 158.644 43.7273 158.252 43.7273ZM176.188 59V41.5455H186.653V43.4205H178.301V49.3182H185.869V51.1932H178.301V59H176.188ZM200.55 53.6477V45.9091H202.562V59H200.55V56.7841H200.414C200.107 57.4489 199.63 58.0142 198.982 58.4801C198.335 58.9403 197.516 59.1705 196.528 59.1705C195.71 59.1705 194.982 58.9915 194.346 58.6335C193.71 58.2699 193.21 57.7244 192.846 56.9972C192.482 56.2642 192.3 55.3409 192.3 54.2273V45.9091H194.312V54.0909C194.312 55.0455 194.579 55.8068 195.113 56.375C195.653 56.9432 196.34 57.2273 197.175 57.2273C197.675 57.2273 198.184 57.0994 198.701 56.8438C199.224 56.5881 199.661 56.196 200.014 55.6676C200.371 55.1392 200.55 54.4659 200.55 53.6477ZM211.377 51.125V59H209.366V45.9091H211.309V47.9545H211.479C211.786 47.2898 212.252 46.7557 212.877 46.3523C213.502 45.9432 214.309 45.7386 215.298 45.7386C216.184 45.7386 216.96 45.9205 217.624 46.2841C218.289 46.642 218.806 47.1875 219.175 47.9205C219.545 48.6477 219.729 49.5682 219.729 50.6818V59H217.718V50.8182C217.718 49.7898 217.451 48.9886 216.917 48.4148C216.383 47.8352 215.65 47.5455 214.718 47.5455C214.076 47.5455 213.502 47.6847 212.996 47.9631C212.496 48.2415 212.102 48.6477 211.812 49.1818C211.522 49.7159 211.377 50.3636 211.377 51.125ZM231.843 59.2727C230.616 59.2727 229.559 58.983 228.673 58.4034C227.786 57.8239 227.104 57.0256 226.627 56.0085C226.15 54.9915 225.911 53.8295 225.911 52.5227C225.911 51.1932 226.155 50.0199 226.644 49.0028C227.138 47.9801 227.826 47.1818 228.707 46.608C229.593 46.0284 230.627 45.7386 231.809 45.7386C232.729 45.7386 233.559 45.9091 234.298 46.25C235.036 46.5909 235.641 47.0682 236.113 47.6818C236.584 48.2955 236.877 49.0114 236.991 49.8295H234.979C234.826 49.233 234.485 48.7045 233.957 48.2443C233.434 47.7784 232.729 47.5455 231.843 47.5455C231.059 47.5455 230.371 47.75 229.78 48.1591C229.195 48.5625 228.738 49.1335 228.408 49.8722C228.084 50.6051 227.923 51.4659 227.923 52.4545C227.923 53.4659 228.082 54.3466 228.4 55.0966C228.724 55.8466 229.178 56.429 229.763 56.8438C230.354 57.2585 231.048 57.4659 231.843 57.4659C232.366 57.4659 232.84 57.375 233.266 57.1932C233.692 57.0114 234.053 56.75 234.349 56.4091C234.644 56.0682 234.854 55.6591 234.979 55.1818H236.991C236.877 55.9545 236.596 56.6506 236.147 57.2699C235.704 57.8835 235.116 58.3722 234.383 58.7358C233.655 59.0938 232.809 59.2727 231.843 59.2727ZM248.744 45.9091V47.6136H241.96V45.9091H248.744ZM243.937 42.7727H245.949V55.25C245.949 55.8182 246.031 56.2443 246.196 56.5284C246.366 56.8068 246.582 56.9943 246.844 57.0909C247.111 57.1818 247.392 57.2273 247.687 57.2273C247.909 57.2273 248.091 57.2159 248.233 57.1932C248.375 57.1648 248.489 57.142 248.574 57.125L248.983 58.9318C248.847 58.983 248.656 59.0341 248.412 59.0852C248.168 59.142 247.858 59.1705 247.483 59.1705C246.915 59.1705 246.358 59.0483 245.812 58.804C245.273 58.5597 244.824 58.1875 244.466 57.6875C244.114 57.1875 243.937 56.5568 243.937 55.7955V42.7727ZM254.89 59V45.9091H256.901V59H254.89ZM255.913 43.7273C255.52 43.7273 255.182 43.5938 254.898 43.3267C254.62 43.0597 254.481 42.7386 254.481 42.3636C254.481 41.9886 254.62 41.6676 254.898 41.4006C255.182 41.1335 255.52 41 255.913 41C256.305 41 256.64 41.1335 256.918 41.4006C257.202 41.6676 257.344 41.9886 257.344 42.3636C257.344 42.7386 257.202 43.0597 256.918 43.3267C256.64 43.5938 256.305 43.7273 255.913 43.7273ZM269.023 59.2727C267.842 59.2727 266.805 58.9915 265.913 58.429C265.026 57.8665 264.333 57.0795 263.833 56.0682C263.339 55.0568 263.092 53.875 263.092 52.5227C263.092 51.1591 263.339 49.9687 263.833 48.9517C264.333 47.9347 265.026 47.1449 265.913 46.5824C266.805 46.0199 267.842 45.7386 269.023 45.7386C270.205 45.7386 271.239 46.0199 272.126 46.5824C273.018 47.1449 273.711 47.9347 274.205 48.9517C274.705 49.9687 274.955 51.1591 274.955 52.5227C274.955 53.875 274.705 55.0568 274.205 56.0682C273.711 57.0795 273.018 57.8665 272.126 58.429C271.239 58.9915 270.205 59.2727 269.023 59.2727ZM269.023 57.4659C269.921 57.4659 270.66 57.2358 271.239 56.7756C271.819 56.3153 272.248 55.7102 272.526 54.9602C272.805 54.2102 272.944 53.3977 272.944 52.5227C272.944 51.6477 272.805 50.8324 272.526 50.0767C272.248 49.321 271.819 48.7102 271.239 48.2443C270.66 47.7784 269.921 47.5455 269.023 47.5455C268.126 47.5455 267.387 47.7784 266.807 48.2443C266.228 48.7102 265.799 49.321 265.52 50.0767C265.242 50.8324 265.103 51.6477 265.103 52.5227C265.103 53.3977 265.242 54.2102 265.52 54.9602C265.799 55.7102 266.228 56.3153 266.807 56.7756C267.387 57.2358 268.126 57.4659 269.023 57.4659ZM283.157 51.125V59H281.145V45.9091H283.089V47.9545H283.259C283.566 47.2898 284.032 46.7557 284.657 46.3523C285.282 45.9432 286.089 45.7386 287.077 45.7386C287.964 45.7386 288.739 45.9205 289.404 46.2841C290.069 46.642 290.586 47.1875 290.955 47.9205C291.324 48.6477 291.509 49.5682 291.509 50.6818V59H289.498V50.8182C289.498 49.7898 289.231 48.9886 288.697 48.4148C288.162 47.8352 287.43 47.5455 286.498 47.5455C285.856 47.5455 285.282 47.6847 284.776 47.9631C284.276 48.2415 283.881 48.6477 283.591 49.1818C283.302 49.7159 283.157 50.3636 283.157 51.125ZM302.157 59.3068C301.327 59.3068 300.574 59.1506 299.898 58.8381C299.222 58.5199 298.685 58.0625 298.287 57.4659C297.89 56.8636 297.691 56.1364 297.691 55.2841C297.691 54.5341 297.839 53.9261 298.134 53.4602C298.43 52.9886 298.824 52.6193 299.319 52.3523C299.813 52.0852 300.358 51.8864 300.955 51.7557C301.557 51.6193 302.162 51.5114 302.77 51.4318C303.566 51.3295 304.211 51.2528 304.705 51.2017C305.205 51.1449 305.569 51.0511 305.796 50.9205C306.029 50.7898 306.145 50.5625 306.145 50.2386V50.1705C306.145 49.3295 305.915 48.6761 305.455 48.2102C305.001 47.7443 304.31 47.5114 303.384 47.5114C302.424 47.5114 301.671 47.7216 301.126 48.142C300.58 48.5625 300.197 49.0114 299.975 49.4886L298.066 48.8068C298.407 48.0114 298.861 47.392 299.43 46.9489C300.003 46.5 300.628 46.1875 301.305 46.0114C301.986 45.8295 302.657 45.7386 303.316 45.7386C303.736 45.7386 304.219 45.7898 304.765 45.892C305.316 45.9886 305.847 46.1903 306.358 46.4972C306.876 46.804 307.305 47.267 307.645 47.8864C307.986 48.5057 308.157 49.3352 308.157 50.375V59H306.145V57.2273H306.043C305.907 57.5114 305.68 57.8153 305.361 58.1392C305.043 58.4631 304.62 58.7386 304.091 58.9659C303.563 59.1932 302.918 59.3068 302.157 59.3068ZM302.464 57.5C303.259 57.5 303.93 57.3438 304.475 57.0312C305.026 56.7188 305.441 56.3153 305.719 55.821C306.003 55.3267 306.145 54.8068 306.145 54.2614V52.4205C306.06 52.5227 305.873 52.6165 305.583 52.7017C305.299 52.7812 304.969 52.8523 304.594 52.9148C304.225 52.9716 303.864 53.0227 303.512 53.0682C303.165 53.108 302.884 53.142 302.668 53.1705C302.145 53.2386 301.657 53.3494 301.202 53.5028C300.753 53.6506 300.39 53.875 300.111 54.1761C299.839 54.4716 299.702 54.875 299.702 55.3864C299.702 56.0852 299.961 56.6136 300.478 56.9716C301.001 57.3239 301.662 57.5 302.464 57.5ZM316.959 41.5455V59H314.948V41.5455H316.959Z" fill="url(#paint0_linear_0_1)"/>
<path d="M51 23C51 35.1503 40.9264 45 28.5 45C16.0736 45 6 35.1503 6 23C6 10.8497 16.0736 1 28.5 1C40.9264 1 51 10.8497 51 23Z" fill="#0C41FF"/>
<path d="M19.8409 29V15.9091H21.7841V17.9545H21.9545C22.2273 17.2557 22.6676 16.7131 23.2756 16.3267C23.8835 15.9347 24.6136 15.7386 25.4659 15.7386C26.3295 15.7386 27.0483 15.9347 27.6222 16.3267C28.2017 16.7131 28.6534 17.2557 28.9773 17.9545H29.1136C29.4489 17.2784 29.9517 16.7415 30.6222 16.3438C31.2926 15.9403 32.0966 15.7386 33.0341 15.7386C34.2045 15.7386 35.1619 16.1051 35.9062 16.8381C36.6506 17.5653 37.0227 18.6989 37.0227 20.2386V29H35.0114V20.2386C35.0114 19.2727 34.7472 18.5824 34.2188 18.1676C33.6903 17.7528 33.0682 17.5455 32.3523 17.5455C31.4318 17.5455 30.7188 17.8239 30.2131 18.3807C29.7074 18.9318 29.4545 19.6307 29.4545 20.4773V29H27.4091V20.0341C27.4091 19.2898 27.1676 18.6903 26.6847 18.2358C26.2017 17.7756 25.5795 17.5455 24.8182 17.5455C24.2955 17.5455 23.8068 17.6847 23.3523 17.9631C22.9034 18.2415 22.5398 18.6278 22.2614 19.1222C21.9886 19.6108 21.8523 20.1761 21.8523 20.8182V29H19.8409Z" fill="white"/>
<circle cx="51" cy="50" r="24" fill="#0C41FF"/>
<circle cx="51" cy="50" r="22.5" stroke="#050505" stroke-opacity="0.79" stroke-width="3"/>
<path d="M50.6705 45.9091V47.6136H43.6136V45.9091H50.6705ZM45.7273 59V44.1023C45.7273 43.3523 45.9034 42.7273 46.2557 42.2273C46.608 41.7273 47.0653 41.3523 47.6278 41.1023C48.1903 40.8523 48.7841 40.7273 49.4091 40.7273C49.9034 40.7273 50.3068 40.767 50.6193 40.8466C50.9318 40.9261 51.1648 41 51.3182 41.0682L50.7386 42.8068C50.6364 42.7727 50.4943 42.7301 50.3125 42.679C50.1364 42.6278 49.9034 42.6023 49.6136 42.6023C48.9489 42.6023 48.4688 42.7699 48.1733 43.1051C47.8835 43.4403 47.7386 43.9318 47.7386 44.5795V59H45.7273ZM59.1825 45.9091V47.6136H52.3984V45.9091H59.1825ZM54.3757 42.7727H56.3871V55.25C56.3871 55.8182 56.4695 56.2443 56.6342 56.5284C56.8047 56.8068 57.0206 56.9943 57.282 57.0909C57.549 57.1818 57.8303 57.2273 58.1257 57.2273C58.3473 57.2273 58.5291 57.2159 58.6712 57.1932C58.8132 57.1648 58.9268 57.142 59.0121 57.125L59.4212 58.9318C59.2848 58.983 59.0945 59.0341 58.8501 59.0852C58.6058 59.142 58.2962 59.1705 57.9212 59.1705C57.353 59.1705 56.7962 59.0483 56.2507 58.804C55.7109 58.5597 55.2621 58.1875 54.9041 57.6875C54.5518 57.1875 54.3757 56.5568 54.3757 55.7955V42.7727Z" fill="white"/>
<path d="M2.6182 41.9949L2.6182 48.9055C2.6182 57.1898 9.33393 63.9055 17.6182 63.9055L23.9062 63.9055" stroke="#0C41FF" stroke-width="4"/>
<path d="M78.264 31.0229L78.1596 24.1131C78.0344 15.8297 71.2179 9.21631 62.9346 9.34153L56.6473 9.43657" stroke="#0C41FF" stroke-width="4"/>
<path d="M24.964 65.062L18.508 56.9149" stroke="#0C41FF" stroke-width="4"/>
<path d="M55.5721 8.29616L62.1505 16.3447" stroke="#0C41FF" stroke-width="4"/>
<path d="M24.964 63.3832L18.5086 71.5307" stroke="#0C41FF" stroke-width="4"/>
<path d="M55.5975 9.97482L61.929 1.73063" stroke="#0C41FF" stroke-width="4"/>
<line x1="323" y1="36.5" x2="89" y2="36.5" stroke="url(#paint1_linear_0_1)" stroke-width="3"/>
<defs>
<linearGradient id="paint0_linear_0_1" x1="168" y1="-24.5" x2="270" y2="77" gradientUnits="userSpaceOnUse">
<stop stop-color="#1E90FF"/>
<stop offset="1" stop-color="#E01EFF" stop-opacity="0.75"/>
</linearGradient>
<linearGradient id="paint1_linear_0_1" x1="89" y1="35" x2="323" y2="35" gradientUnits="userSpaceOnUse">
<stop stop-color="#1E90FF"/>
<stop offset="1" stop-color="#D21EFF" stop-opacity="0.63"/>
</linearGradient>
</defs>
</svg>
