<svg width="40" height="40" viewBox="0 0 40 40" fill="none" xmlns="http://www.w3.org/2000/svg">
<circle cx="20" cy="20" r="20" fill="#2A58FC"/>
<path d="M20.5 25.2236C19.6961 25.2237 18.9078 25.0224 18.2222 24.642L8 19V27.7412C8 28.075 8.14633 28.3952 8.4068 28.6313C8.66726 28.8674 9.02053 29 9.38889 29H31.6111C31.9795 29 32.3327 28.8674 32.5932 28.6313C32.8537 28.3952 33 28.075 33 27.7412V19L22.7861 24.6395C22.0981 25.0216 21.3069 25.2238 20.5 25.2236Z" fill="white"/>
<path d="M32.2583 15.6229L21.3327 21.7815C21.0821 21.9243 20.7936 22 20.4993 22C20.205 22 19.9165 21.9243 19.6659 21.7815L8.7403 15.6229C8.45222 15.4643 8.22911 15.2218 8.10595 14.9333C7.98278 14.6448 7.96652 14.3266 8.0597 14.0286C8.16048 13.73 8.36178 13.4692 8.63418 13.2841C8.90657 13.099 9.23578 12.9995 9.57368 13H31.4263C31.7643 12.9991 32.0937 13.0985 32.3662 13.2836C32.6387 13.4687 32.8399 13.7298 32.9403 14.0286C33.0335 14.3266 33.0172 14.6448 32.8941 14.9333C32.7709 15.2218 32.5478 15.4643 32.2597 15.6229H32.2583Z" fill="white"/>
</svg>
