<svg width="40" height="40" viewBox="0 0 40 40" fill="none" xmlns="http://www.w3.org/2000/svg">
<circle cx="20" cy="20" r="20" fill="#2A58FC"/>
<path d="M36 12.7227C34.9698 13.185 33.8627 13.4963 32.7007 13.6366C33.886 12.9185 34.7972 11.7806 35.2265 10.4245C34.117 11.0907 32.8873 11.573 31.5783 11.8348C30.5307 10.7052 29.0373 10 27.3853 10C24.2132 10 21.6407 12.6001 21.6407 15.8063C21.6407 16.2615 21.692 16.7048 21.79 17.1294C17.016 16.8876 12.7822 14.5764 9.9495 11.0624C9.45483 11.9209 9.17133 12.9173 9.17133 13.9821C9.17133 15.9962 10.1852 17.7744 11.7275 18.8156C10.786 18.7837 9.89933 18.5231 9.12467 18.0892V18.1611C9.12467 20.9747 11.1045 23.3212 13.733 23.8542C13.2512 23.9887 12.7425 24.0582 12.2198 24.0582C11.8488 24.0582 11.4895 24.0217 11.1383 23.9545C11.8698 26.261 13.9908 27.9401 16.505 27.9873C14.538 29.5438 12.0612 30.4718 9.37083 30.4718C8.9065 30.4718 8.44917 30.4447 8 30.3916C10.5422 32.0378 13.5615 33 16.806 33C27.3725 33 33.1498 24.1526 33.1498 16.4796C33.1498 16.2285 33.144 15.9785 33.1335 15.7297C34.2558 14.9101 35.23 13.8878 36 12.7227Z" fill="white"/>
</svg>
